<svg id="Layer_1" data-name="Layer 1" xmlns="http://www.w3.org/2000/svg" width="123.99mm" height="46.53mm" viewBox="0 0 351.46 131.9"><defs><style>.cls-1{fill:#575756;}.cls-2{fill:#1d1d1b;}.cls-3{fill:none;stroke:#1d1d1b;stroke-miterlimit:10;stroke-width:2px;}</style></defs><path class="cls-1" d="M31.49,47.51a16.91,16.91,0,0,1-1.87-.59,15.22,15.22,0,0,1-1.53-1.11,11.47,11.47,0,0,0,2.12-.76c.77-.34,1.71-.85,1.87-1.7.6-4.34,2.39-8.08,4.34-11.73a145.08,145.08,0,0,1,7.65-13.18c2.3-3.32,4.76-6.29,7.31-9.44A4.06,4.06,0,0,1,56,7.73c2.13.51,2.72,1.78,2.89,3.57.26,5.52-2.46,9.52-5,13.52C50,30.34,45.94,35.7,41.86,41a13.53,13.53,0,0,1-3.06,2.8c-2.46,1.19-3.4,3.49-3.74,6.12-.42,3.4-.68,9.27-.93,12.75.08.94.51,2.13.76,3.32,1.36-.43,2.81-.85,4.17-1.36,6-2.13,12.66-2.21,19.38-2a79.34,79.34,0,0,1,8.92.93c2.55.43,3.83,1.45,4.25,3A61.67,61.67,0,0,0,44.5,67c-3,.68-5.44,2.21-8.16,3.31a19.5,19.5,0,0,1-3.66,1.45,3.15,3.15,0,0,1-2.3-.77,3,3,0,0,1,.26-2.55c.51-.68,1.7-1,2.55-1.53C29.11,60.69,30.38,52.87,31.49,47.51ZM42.12,35.36C45.6,30.68,49,26,52.32,21.25A18.39,18.39,0,0,0,55.8,11a12,12,0,0,1-.42-1.53C47.64,18,42.88,28.3,38.72,39,39.82,37.74,41.1,36.72,42.12,35.36Z"/><path class="cls-1" d="M74.25,50.91c1.53,1.7-.43,3.91-2.64,5.87-4.08,3.57-11.48,5.78-12.24-.6a22,22,0,0,1-3.4,3,4.3,4.3,0,0,1-4.85-.85A5,5,0,0,1,50.27,53a30.61,30.61,0,0,1,3.83-6.63c1.78-2.38,5-2.55,7.48-.94a4.29,4.29,0,0,1,1.36,1.36,7,7,0,0,1,3.4-1.1c9.69-.43,2.89,10.11-3.48,6.8C60.64,63.66,73.4,54,74.25,50.91ZM59.88,47c-3.49.77-6.46,5.61-5.87,9.44C56.65,55.42,60.05,49.89,59.88,47Zm8.59.85c-2.47-.17-4,.94-5.28,2.81C65.58,51.25,69.74,49,68.47,47.85Z"/><path class="cls-1" d="M81.72,43.94c2.64-1.53,5.87.09,5.7,3A7.93,7.93,0,0,1,85.8,49.3c-6.29-8.33-10.37,5-10.71,10.37,0,.17,0,.25-.08.34-2.3.51-2.89,0-2.64-2.13.85-4.42,1.7-8.67,2.38-13.09.17-.76-.08-1.95,1.62-1.95,1.27,0,2,.51,1.7,1.7-.17.68-.26,1.27-.34,1.78A27.14,27.14,0,0,1,81.72,43.94Z"/><path class="cls-1" d="M101.44,44.54c2.64,1.1,3.83,4.76-.85,7-3.82,1.7-6,1-4.84,4.93,1.61,4.33,6.8,1.61,7.65-.17a3.86,3.86,0,0,1-3.06,4.84c-2.81.77-6.38-1-8.84-6.12-.51,3.66-1.11,7.48-1.62,11.22-.17,0-.25.09-.42.09-.43-.85-1.19-1.7-1.19-2.55,0-3.49-.17-7.23.51-10.63,1.27-7.48,3.14-14.79,4.76-22.18.85-4,1.87-8,2.89-12,.25-.94.76-1.7,2.21-.85a1.88,1.88,0,0,1,1.1,2.46c-2.12,8.17-4.16,17.35-5.69,25.34C96,44.79,99,43.52,101.44,44.54Zm-8,6.46c3.49-.51,7.06-2.55,7.74-4.59C98.21,46.07,94.47,48.19,93.45,51Z"/><path class="cls-1" d="M120.57,50.91c1.53,1.7-.43,3.91-2.64,5.87-4.59,4-13.51,6.37-12.15-3.66.68-4.93,3.65-7.22,6.88-7.39,9.69-.43,2.89,10.11-3.48,6.8C107,63.66,119.72,54,120.57,50.91Zm-5.78-3.06a5.47,5.47,0,0,0-5.27,2.81C111.9,51.25,116.06,49,114.79,47.85Z"/><path class="cls-1" d="M162.64,24.82c-2.46,4.84-4.84,9.6-6,15.13a2.84,2.84,0,0,0-.26.68c5.53.42,10.37-2,16.83,1-.76.42-1,.85-1.44.93-4.42.51-8.93,1-13.09,1.7-2,.26-3.66.77-3.83,3.06-.51,4.25-1.53,8.33-2.12,12.58a6.71,6.71,0,0,0,.34,3.4c.08.43,1.53,1,2,.94,3-1.36,5.95-2.89,8.93-4.34A36.21,36.21,0,0,1,174.8,57a.61.61,0,0,1,.25.51c-.34.17-.51.51-.93.6A57.51,57.51,0,0,0,160,63.92a30.86,30.86,0,0,1-7.31,2.89,3.93,3.93,0,0,1-4.93-3.91c.42-4,1-8.08,1.61-12,.43-1.87.68-3.65,1.11-5.27-1.45-.59-2.64-.85-3.74-1.44a2.27,2.27,0,0,1-1.19-1.36c-.09-.43.51-.85,1-.94a15.63,15.63,0,0,1,3.4-.34,1.91,1.91,0,0,0,2-1.36c2-6.63,4.34-13.17,6.63-19.55a5.16,5.16,0,0,1,.68-1.7c-3.23.93-6,1.7-9,2.55-.34.08-.76.08-1,.17-1.19.6-2.21.08-3-1.11s-.26-2.12,1-2.55c9.18-2.89,18.61-5.27,29-5.69,3.23-.09,6.55,0,9.86.17a3.77,3.77,0,0,1,3.23,3.06c-9.43-1.19-17.76.42-26.35,2.29C164.51,20.82,163.66,22.77,162.64,24.82Z"/><path class="cls-1" d="M188.14,59.5a4.37,4.37,0,0,1-1.61-3c0-2.12,1.19-4,1.36-6,.59-3.82-1.7-1.78-3-.59a24.06,24.06,0,0,0-5.44,9,13.22,13.22,0,0,0-.51,1.7c-.25,1.36-1.27,1.61-2.46,1.1-1.36-.68-1.11-1.7-.94-2.63.68-3.15,1.45-6.38,2-9.61.17-1,.26-2.12.51-3.14.6-2.21.77-2.3,3.32-1.28-.17,1.53-.43,3.23-.6,4.51,2.13-2.47,6-5.36,9-2.55.68.68.94,2.55.68,3.82-1.87,9.18,1.7,7.48,6.63.09,2.47,3.06-4.16,9.09-5.78,9.18C190.69,60.6,189,60.18,188.14,59.5Z"/><path class="cls-1" d="M203.61,61.2c-1.61,1.19-3.57.59-5.35-.51a5.36,5.36,0,0,1-2.64-4.34c.17-5.1,2-8.92,6-11.3,2.46-1.19,5.44-.09,8.16,1.44a2.38,2.38,0,0,1,1,1.62,52.23,52.23,0,0,1,.17,8.07c-1,9.52-3.57,22.44-7.65,28.65-1.53,2.38-3.49,4.68-7.14,4.59-3.32-.08-8-3.23-7.23-8.08.93-6.54,5-10.45,11-12.66a7.42,7.42,0,0,1,2.89-.77c2.21.09,2.89-1.1,3.06-2.8.25-2.21.68-4.42,1.19-6.8C205.82,59.41,204.63,60.35,203.61,61.2Zm-.51,8.24c-5.69,1.53-9.18,5.27-11,10.63a9,9,0,0,0-.5,4c.33,2.73,2.2,4,4.42,2.9a8.82,8.82,0,0,0,3.14-2.47c3.32-4.17,4.42-9.61,5.61-15.39Zm3.15-22.52c-.26-.26-1.11,0-1.45.34a23.13,23.13,0,0,0-4,4.16,9.92,9.92,0,0,0-1.36,7.82C203,59.67,209.14,49,206.25,46.92Z"/><path class="cls-1" d="M228.26,50.91c1.53,1.7-.42,3.91-2.63,5.87-4.59,4-13.52,6.37-12.16-3.66.68-4.93,3.66-7.22,6.89-7.39,9.69-.43,2.89,10.11-3.49,6.8C214.66,63.66,227.41,54,228.26,50.91Zm-5.78-3.06c-2.46-.17-4,.94-5.27,2.81C219.59,51.25,223.76,49,222.48,47.85Z"/><path class="cls-1" d="M240.33,66.3c-2.55,1.36-5.61,1.87-8.5-.26a11.22,11.22,0,0,1-4.51-9.35c0-10.54,4.25-27.2,6.21-37.06a16.28,16.28,0,0,1,.51-3.06,1.42,1.42,0,0,1,1.44-.6A3.13,3.13,0,0,1,238,20.23c-1,4.33-2,8.58-3,12.75-.85,3.82-2.12,13-2.72,16.91-.42,2.72-2.38,17,3.74,14.88,2.3-.77,4.51-1.7,6.89-2.64C243.39,63.92,242.63,65.19,240.33,66.3Z"/><path class="cls-1" d="M249.59,43.6c1.54-1.44,3.41-1.19,5.36-.34,1.53.68,2.3,2.72,2,4.76a40.78,40.78,0,0,1-.51,4.25c1.78-.51,3.14-1.1,5.18-1.87-.59,2.21-1.53,3.32-3.06,3.57a5.5,5.5,0,0,0-4.25,3.32c-1.87,3.74-4.85,4.33-9.69,2a6.32,6.32,0,0,1,.25,1.11c.26.93.43,1.87-.76,2.21a2.21,2.21,0,0,1-2.64-2.13c-.17-16.23,5.1-31.62,8.93-46.5.51-1.87,1.1-2,2.81-1.27,1.19.59,1.53.93,1,2.29-3.05,9.87-5.44,19.64-7.48,29.5-.17.51-.17,1.11-.42,2C247.64,45.3,248.57,44.54,249.59,43.6Zm1.79,8.84c.51-.08,1.36-.25,1.53-.59a13.55,13.55,0,0,0,.26-7.4c-3.15,2.47-5,5.53-6.72,8.25Zm.42,1.7a3.69,3.69,0,0,0-4.16,1.62c-.6.76-.43,1.87-.51,2.89C250.44,57.46,251.63,56.18,251.8,54.14Z"/><path class="cls-1" d="M275,50.91c1.53,1.7-.43,3.91-2.64,5.87-4.59,4-13.51,6.37-12.15-3.66.68-4.93,3.65-7.22,6.88-7.39,9.69-.43,2.89,10.11-3.48,6.8C261.41,63.66,274.16,54,275,50.91Zm-5.78-3.06A5.47,5.47,0,0,0,264,50.66C266.34,51.25,270.5,49,269.23,47.85Z"/><path class="cls-1" d="M282.49,43.94c2.63-1.53,5.86.09,5.69,3a8.07,8.07,0,0,1-1.61,2.38c-6.29-8.33-10.37,5-10.71,10.37,0,.17,0,.25-.09.34-2.29.51-2.89,0-2.63-2.13.85-4.42,1.7-8.67,2.38-13.09.17-.76-.09-1.95,1.61-1.95,1.28,0,2,.51,1.7,1.7-.17.68-.25,1.27-.34,1.78A26.74,26.74,0,0,1,282.49,43.94Z"/><path class="cls-1" d="M274.75,28.3h9.78c4.42,0,9.26.94,9.94-1.78.94-4.25,2-8.59,3.06-12.84.43-.94.34-2.47,2.47-1.36,1.78.85,2.29,1.78,1.78,3.57-1,4.34-2.38,8.59-3.06,12.84l38.94.93a2,2,0,0,1,.25,1c-2.8,0-5.61-.08-8.33,0-5,0-10,0-15.05.09-4.76.08-9.52.17-14.28.17-3.06,0-3.31.34-3.74,2.8-1,6.38-4.08,13.35-3,19.89,1.78,8.93,9,5.27,11.9-2.63,1.1,2.29.76,6-.34,7.48A7.07,7.07,0,0,1,298,61.54c-3-.26-6.21-3.32-7.4-6.72a18.69,18.69,0,0,1-.59-9.09c.85-4.85,1.78-9.61,2.8-14.79H289.2c-3.74-.09-7.48-.34-11.39-.68A3.63,3.63,0,0,1,274.75,28.3Z"/><path class="cls-1" d="M308.24,55.25c-.68,2.8-.51,6-.59,9.09-.09,1.19.08,2.47-1.87,2a3.26,3.26,0,0,1-2.13-3.15,45.6,45.6,0,0,1,.51-7c1.62-10.2,3.4-20.23,5.27-30.26.68-3.82,1.62-7.48,2.38-11.14.26-1.27.51-2.55,2.47-1.87,1.19.51,1.87,2.47,1.53,3.74-.85,3-1.62,6-2.38,9.1-.85,3.57-1.53,7.31-2.3,11-.68,3.48-1.36,6.88-2.12,10.54,0,.25.17.59.25,1.19a21.9,21.9,0,0,0,3.06-2.21,2.93,2.93,0,0,1,3.57-.26,3.62,3.62,0,0,1,2,3.4c0,2,.34,3.91.51,5.95,2.89-.34,3.49-2.63,5-4.42.17.43.42.6.51.85.76,1.45-.17,4.34-1.36,5.19-1.7,1-3.66.85-5.78-.51-2.21-1.53-1.87-3.57-2.13-5.27a22.94,22.94,0,0,1-.42-3.83C310.79,49.13,309.35,52.1,308.24,55.25Z"/><path class="cls-2" d="M48.68,119l.4-16.2h1.5l3.22,14.06,3.26-14.06h1.52L59,119H57.72l-.32-12.9L54.3,119h-1l-3.06-12.88L49.94,119Z"/><path class="cls-2" d="M68.66,119.22a4.63,4.63,0,0,1-2.55-.59A3,3,0,0,1,64.86,117a7.62,7.62,0,0,1-.34-2.39V102.82H66v11.82a6.46,6.46,0,0,0,.21,1.71,2.14,2.14,0,0,0,.79,1.21,2.67,2.67,0,0,0,1.66.44,2.6,2.6,0,0,0,1.62-.45,2.29,2.29,0,0,0,.81-1.21,5.92,5.92,0,0,0,.23-1.7V102.82h1.46V114.6a7.32,7.32,0,0,1-.36,2.39,3.09,3.09,0,0,1-1.26,1.64A4.47,4.47,0,0,1,68.66,119.22Z"/><path class="cls-2" d="M78.48,119v-16.2H80v15.06h4.6V119Z"/><path class="cls-2" d="M89.94,119V104H86.88v-1.18h7.54V104h-3v15Z"/><path class="cls-2" d="M99.3,119v-16.2h1.52V119Z"/><path class="cls-2" d="M106.6,119l.4-16.2h1.5l3.22,14.06L115,102.82h1.52l.4,16.2h-1.26l-.32-12.9-3.1,12.9h-1l-3.06-12.88L107.86,119Z"/><path class="cls-2" d="M122.6,119v-16.2h5.86V104h-4.32v6.08h3.52v1.12h-3.52v6.68h4.36V119Z"/><path class="cls-2" d="M133.62,119v-16.2h3.52a5.08,5.08,0,0,1,2.65.59,3.22,3.22,0,0,1,1.34,1.67,7.37,7.37,0,0,1,.39,2.5V114a8,8,0,0,1-.39,2.63,3.34,3.34,0,0,1-1.31,1.75,4.46,4.46,0,0,1-2.54.62Zm1.52-1.14h2a2.76,2.76,0,0,0,1.88-.53,2.43,2.43,0,0,0,.76-1.46,13.24,13.24,0,0,0,.16-2.11v-6a8.56,8.56,0,0,0-.21-2,2.16,2.16,0,0,0-.82-1.26,3.25,3.25,0,0,0-1.83-.43h-2Z"/><path class="cls-2" d="M147.12,119v-16.2h1.52V119Z"/><path class="cls-2" d="M154.54,119v-16.2h5.86V104h-4.32v6.08h3.52v1.12h-3.52v6.68h4.36V119Z"/><path class="cls-2" d="M165.56,119v-16.2h3.52a5.08,5.08,0,0,1,2.65.59,3.22,3.22,0,0,1,1.34,1.67,7.37,7.37,0,0,1,.39,2.5V114a8,8,0,0,1-.39,2.63,3.34,3.34,0,0,1-1.31,1.75,4.46,4.46,0,0,1-2.54.62Zm1.52-1.14h2a2.76,2.76,0,0,0,1.88-.53,2.43,2.43,0,0,0,.76-1.46,13.24,13.24,0,0,0,.16-2.11v-6a8.56,8.56,0,0,0-.21-2,2.16,2.16,0,0,0-.82-1.26,3.25,3.25,0,0,0-1.83-.43h-2Z"/><path class="cls-2" d="M179,119v-16.2h5.86V104h-4.32v6.08h3.52v1.12h-3.52v6.68h4.36V119Z"/><path class="cls-2" d="M193.46,119.22a4,4,0,0,1-2.19-.55,3.36,3.36,0,0,1-1.31-1.54,6.65,6.65,0,0,1-.54-2.31l1.34-.4a8,8,0,0,0,.36,1.81,2.61,2.61,0,0,0,.82,1.28,2.27,2.27,0,0,0,1.54.47,2,2,0,0,0,2.28-2.34,3.29,3.29,0,0,0-.53-1.85,10.83,10.83,0,0,0-1.45-1.65l-2.86-2.74a5,5,0,0,1-1.12-1.53,4.09,4.09,0,0,1-.36-1.73,3.28,3.28,0,0,1,1-2.58,3.81,3.81,0,0,1,2.66-.9,5.32,5.32,0,0,1,1.55.22,3,3,0,0,1,1.18.71,3.54,3.54,0,0,1,.77,1.27,8.27,8.27,0,0,1,.38,1.9l-1.3.34a7.91,7.91,0,0,0-.33-1.75,2.29,2.29,0,0,0-.78-1.11,2.93,2.93,0,0,0-3.11.14,2,2,0,0,0-.64,1.62,2.77,2.77,0,0,0,.25,1.2,3.87,3.87,0,0,0,.89,1.16l2.86,2.7a10.57,10.57,0,0,1,1.66,2,4.59,4.59,0,0,1,.7,2.48,4.05,4.05,0,0,1-.47,2,3,3,0,0,1-1.31,1.23A4.29,4.29,0,0,1,193.46,119.22Z"/><path class="cls-2" d="M202.3,119v-16.2h1.52V119Z"/><path class="cls-2" d="M213.38,119.24a3.92,3.92,0,0,1-2.39-.64,3.39,3.39,0,0,1-1.23-1.81,9.22,9.22,0,0,1-.36-2.71v-6.32a9,9,0,0,1,.35-2.7,3.22,3.22,0,0,1,1.24-1.77,5.26,5.26,0,0,1,4.82-.09,3.12,3.12,0,0,1,1.23,1.58,7.55,7.55,0,0,1,.38,2.54v.56H216v-.56a7.39,7.39,0,0,0-.21-1.92,2.1,2.1,0,0,0-.73-1.14,2.63,2.63,0,0,0-1.54-.38,2.47,2.47,0,0,0-1.66.48,2.21,2.21,0,0,0-.73,1.32,9.26,9.26,0,0,0-.17,1.92v6.66a8.41,8.41,0,0,0,.21,2,2.23,2.23,0,0,0,.78,1.28,2.53,2.53,0,0,0,1.61.44,2.4,2.4,0,0,0,1.55-.45,2.45,2.45,0,0,0,.77-1.29,8.48,8.48,0,0,0,.22-2v-1.9h-2.4v-1.14h3.8V119h-1l-.18-1.84a3.05,3.05,0,0,1-1,1.5A3,3,0,0,1,213.38,119.24Z"/><path class="cls-2" d="M223.16,119v-16.2h1.1l5.16,12.58V102.82h1.32V119h-1.08l-5.2-12.72V119Z"/><path class="cls-2" d="M236.58,119v-16.2h5.86V104h-4.32v6.08h3.52v1.12h-3.52v6.68h4.36V119Z"/><path class="cls-2" d="M247.6,119v-16.2h3.66a5,5,0,0,1,2.39.49,2.84,2.84,0,0,1,1.25,1.42,5.91,5.91,0,0,1,.37,2.21,7.14,7.14,0,0,1-.19,1.7,3.29,3.29,0,0,1-.68,1.36,2.33,2.33,0,0,1-1.36.74l2.48,8.28H254l-2.38-8h-2.54v8Zm1.52-9.08h2.06a3,3,0,0,0,1.58-.34,1.87,1.87,0,0,0,.8-1,4.9,4.9,0,0,0,.24-1.66,3.9,3.9,0,0,0-.53-2.24,2.36,2.36,0,0,0-2.05-.74h-2.1Z"/><path class="cls-2" d="M268,119v-16.2h5.86V104h-4.32v6.08H273v1.12h-3.52v6.68h4.36V119Z"/><path class="cls-2" d="M279,119v-16.2h1.52v15.06h4.6V119Z"/><path class="cls-2" d="M289.66,119v-16.2h5.86V104H291.2v6.08h3.52v1.12H291.2v6.68h4.36V119Z"/><path class="cls-2" d="M303.54,119l-3.8-16.2h1.46l3.06,13.42,2.88-13.42h1.44L304.92,119Z"/><line class="cls-3" x1="28.09" y1="96.74" x2="337.91" y2="96.74"/></svg>