<svg id="Layer_1" data-name="Layer 1" xmlns="http://www.w3.org/2000/svg" width="122.01mm" height="45.72mm" viewBox="0 0 345.87 129.61"><defs><style>.cls-1{fill:#575756;}.cls-2{fill:#1d1d1b;}.cls-3{fill:none;stroke:#1d1d1b;stroke-miterlimit:10;stroke-width:2px;}</style></defs><path class="cls-1" d="M9,40.25a13.49,13.49,0,0,1-1.58-.51,11.3,11.3,0,0,1-1.3-.94,9,9,0,0,0,1.8-.64c.65-.29,1.44-.72,1.59-1.44a29.27,29.27,0,0,1,3.67-9.94,119.31,119.31,0,0,1,6.48-11.16c1.94-2.81,4-5.33,6.19-8a3.43,3.43,0,0,1,3.89-1.08,2.93,2.93,0,0,1,2.45,3c.21,4.68-2.09,8.07-4.25,11.45-3.24,4.68-6.7,9.22-10.15,13.68a12,12,0,0,1-2.6,2.38c-2.08,1-2.88,3-3.16,5.18-.36,2.88-.58,7.85-.8,10.8.08.79.44,1.8.65,2.81,1.15-.36,2.38-.72,3.53-1.15,5.11-1.8,10.73-1.87,16.42-1.73a66.83,66.83,0,0,1,7.56.79c2.16.36,3.24,1.23,3.6,2.52a52.54,52.54,0,0,0-23,.43c-2.52.58-4.61,1.88-6.91,2.81A16.82,16.82,0,0,1,10,60.77,2.67,2.67,0,0,1,8,60.12,2.5,2.5,0,0,1,8.23,58c.43-.58,1.44-.87,2.16-1.3C6.94,51.41,8,44.78,9,40.25ZM18,30C20.9,26,23.78,22,26.59,18a15.67,15.67,0,0,0,3-8.65,9,9,0,0,1-.36-1.29C22.63,15.26,18.6,24,15.07,33,16,32,17.09,31.1,18,30Z"/><path class="cls-1" d="M45.17,43.13c1.29,1.44-.36,3.31-2.23,5-3.46,3-9.73,4.9-10.37-.5a18.93,18.93,0,0,1-2.88,2.52,3.64,3.64,0,0,1-4.11-.72,4.28,4.28,0,0,1-.72-4.46,25.93,25.93,0,0,1,3.24-5.62,4.6,4.6,0,0,1,6.34-.79,3.59,3.59,0,0,1,1.15,1.15,5.86,5.86,0,0,1,2.88-.94c8.21-.36,2.45,8.57-2.95,5.76C33.65,53.93,44.45,45.72,45.17,43.13ZM33,39.81c-2.95.65-5.47,4.76-5,8C30.26,46.94,33.14,42.26,33,39.81Zm7.27.72a4.65,4.65,0,0,0-4.46,2.38C37.82,43.41,41.35,41.47,40.27,40.53Z"/><path class="cls-1" d="M51.5,37.22c2.23-1.3,5,.07,4.83,2.52a6.7,6.7,0,0,1-1.37,2c-5.33-7.06-8.79,4.25-9.07,8.78,0,.15,0,.22-.08.29-1.94.43-2.44,0-2.23-1.8.72-3.74,1.44-7.34,2-11.09.14-.65-.07-1.66,1.37-1.66,1.08,0,1.72.44,1.44,1.44a15.17,15.17,0,0,0-.29,1.52A21.89,21.89,0,0,1,51.5,37.22Z"/><path class="cls-1" d="M68.21,37.72c2.23.94,3.24,4-.72,5.91-3.24,1.44-5.12.86-4.11,4.18,1.37,3.67,5.76,1.36,6.48-.15a3.27,3.27,0,0,1-2.59,4.11c-2.38.64-5.4-.87-7.49-5.19-.43,3.1-.93,6.34-1.37,9.51-.14,0-.21.07-.36.07-.36-.72-1-1.44-1-2.16a46.55,46.55,0,0,1,.43-9c1.08-6.34,2.66-12.53,4-18.8.72-3.38,1.58-6.76,2.45-10.15.21-.79.65-1.44,1.87-.72a1.61,1.61,0,0,1,.94,2.09c-1.8,6.91-3.53,14.69-4.83,21.46C63.6,37.94,66.12,36.86,68.21,37.72ZM61.44,43.2c3-.43,6-2.16,6.55-3.89A6.74,6.74,0,0,0,61.44,43.2Z"/><path class="cls-1" d="M84.41,43.13c1.29,1.44-.36,3.31-2.24,5-3.88,3.39-11.45,5.4-10.29-3.09.57-4.18,3.09-6.12,5.83-6.27,8.21-.36,2.45,8.57-2.95,5.76C72.88,53.93,83.69,45.72,84.41,43.13Zm-4.9-2.6a4.65,4.65,0,0,0-4.46,2.38C77.06,43.41,80.59,41.47,79.51,40.53Z"/><path class="cls-1" d="M151.94,9.79c1.16,4.1.22,7.63-.28,11.3-1.16,9.29-3.24,32.76-14.33,34.06-3.39.36-6.48-1.58-9-5.47A31,31,0,0,1,124,38.88c-.15-.58-.29-1.3-.51-2.24-1.37,4-2.66,7.78-4.1,11.45-1,2.6-1.73,5.4-3.89,7.06a5,5,0,0,1-5.76.07,6.92,6.92,0,0,1-3.24-4.68,40,40,0,0,1-.29-13.39c.65-8.28,3.46-15.63,5.9-23a5.55,5.55,0,0,1,.8-1.73c.79-1.22,1.51-1.58,2.8-.07-1.15,4-2.66,7.7-3.74,11.66a124.87,124.87,0,0,0-2.66,14,89,89,0,0,0,.43,13.11,4.1,4.1,0,0,0,1.51,2.81c.43.28,1.73-.22,2.3-.72,2.52-2.24,3.75-5.33,5-8.5a69.63,69.63,0,0,1,3.1-7.92,12.61,12.61,0,0,0,1.22-5.55,1.74,1.74,0,0,1,1.3-1.22c.79-.14,1.37.65,1.51,1.51.65,3.24,1.23,6.48,2.16,9.72A46.48,46.48,0,0,0,131.64,50c2.09,3.52,4,4.1,7.2,2.08,3.38-2.3,4.75-6.12,5.9-10a114.42,114.42,0,0,0,3.17-12.17c.87-4.68,1.44-9.51,2.09-14.26a44.2,44.2,0,0,0-.07-6.19,8.72,8.72,0,0,1,.29-1.52c.21,0,.28-.07.5-.07A7.93,7.93,0,0,1,151.94,9.79Z"/><path class="cls-1" d="M153.16,49.68c0-.94.51-1.66,1.44-1.59a3.8,3.8,0,0,1,1.16.29c1,.58.57,2.88-.94,3A1.48,1.48,0,0,1,153.16,49.68Z"/><path class="cls-1" d="M194.06,21C192,25.12,190,29.16,189,33.84a1.92,1.92,0,0,0-.22.57c4.68.36,8.79-1.65,14.26.87-.65.36-.87.72-1.23.79-3.74.43-7.56.86-11.08,1.44-1.66.21-3.1.65-3.24,2.59-.44,3.6-1.3,7.06-1.81,10.66a5.79,5.79,0,0,0,.29,2.88c.07.36,1.3.86,1.66.79,2.52-1.15,5-2.45,7.56-3.67a30.49,30.49,0,0,1,9.22-2.45.52.52,0,0,1,.21.43c-.29.15-.43.43-.79.51a48.83,48.83,0,0,0-11.95,4.89,26,26,0,0,1-6.2,2.45,3.33,3.33,0,0,1-4.17-3.31c.36-3.39.86-6.84,1.37-10.15.36-1.59.57-3.1.93-4.47-1.22-.5-2.23-.72-3.17-1.22a1.94,1.94,0,0,1-1-1.16c-.08-.36.43-.72.86-.79a13.41,13.41,0,0,1,2.88-.29A1.62,1.62,0,0,0,185,34.05c1.72-5.61,3.67-11.16,5.61-16.56a4.46,4.46,0,0,1,.58-1.44c-2.74.79-5.11,1.44-7.63,2.16-.29.07-.65.07-.87.15-1,.5-1.87.07-2.52-.94s-.21-1.8.87-2.16c7.77-2.45,15.77-4.47,24.55-4.83,2.74-.07,5.54,0,8.35.15a3.22,3.22,0,0,1,2.74,2.59c-8-1-15,.36-22.32,1.95C195.64,17.64,194.92,19.29,194.06,21Z"/><path class="cls-1" d="M215.66,50.4a3.7,3.7,0,0,1-1.37-2.52c0-1.8,1-3.39,1.15-5,.51-3.24-1.44-1.51-2.52-.51A20.35,20.35,0,0,0,208.31,50a10.78,10.78,0,0,0-.43,1.44c-.21,1.15-1.08,1.36-2.09.93s-.93-1.44-.79-2.23c.58-2.66,1.23-5.4,1.73-8.14.14-.86.22-1.8.43-2.66.51-1.87.65-1.94,2.81-1.08-.14,1.3-.36,2.74-.5,3.82,1.8-2.09,5.11-4.54,7.63-2.16a4.3,4.3,0,0,1,.57,3.24c-1.58,7.77,1.44,6.33,5.62.07,2.09,2.59-3.53,7.7-4.89,7.77A3.11,3.11,0,0,1,215.66,50.4Z"/><path class="cls-1" d="M228.76,51.84c-1.37,1-3,.5-4.53-.43A4.54,4.54,0,0,1,222,47.73c.15-4.32,1.66-7.56,5.12-9.57,2.08-1,4.6-.07,6.91,1.22a2,2,0,0,1,.86,1.37,43.78,43.78,0,0,1,.15,6.84c-.87,8.06-3,19-6.48,24.27-1.3,2-3,4-6.05,3.88-2.81-.07-6.77-2.73-6.12-6.84.79-5.54,4.25-8.85,9.29-10.73a6.15,6.15,0,0,1,2.44-.64c1.88.07,2.45-.94,2.6-2.38.21-1.87.57-3.74,1-5.76C230.63,50.33,229.63,51.12,228.76,51.84Zm-.43,7a12.93,12.93,0,0,0-9.29,9,7.67,7.67,0,0,0-.43,3.39c.29,2.3,1.87,3.38,3.74,2.45A7.62,7.62,0,0,0,225,71.57c2.81-3.53,3.74-8.14,4.75-13ZM231,39.74c-.21-.21-.93,0-1.22.29a19.49,19.49,0,0,0-3.38,3.53,8.39,8.39,0,0,0-1.16,6.62C228.26,50.54,233.44,41.47,231,39.74Z"/><path class="cls-1" d="M249.64,43.13c1.3,1.44-.36,3.31-2.23,5-3.89,3.39-11.45,5.4-10.3-3.09.58-4.18,3.1-6.12,5.84-6.27,8.21-.36,2.44,8.57-3,5.76C238.12,53.93,248.92,45.72,249.64,43.13Zm-4.89-2.6a4.66,4.66,0,0,0-4.47,2.38C242.3,43.41,245.83,41.47,244.75,40.53Z"/><path class="cls-1" d="M259.86,56.16c-2.16,1.15-4.75,1.58-7.2-.22A9.51,9.51,0,0,1,248.85,48c0-8.93,3.6-23,5.26-31.39a13.57,13.57,0,0,1,.43-2.6,1.23,1.23,0,0,1,1.22-.5,2.65,2.65,0,0,1,2.09,3.6c-.86,3.67-1.66,7.27-2.52,10.8-.72,3.24-1.8,11-2.3,14.33-.37,2.31-2,14.4,3.16,12.6,1.95-.65,3.82-1.44,5.84-2.23C262.46,54.14,261.81,55.22,259.86,56.16Z"/><path class="cls-1" d="M267.71,36.93c1.3-1.22,2.88-1,4.54-.29,1.3.58,1.94,2.31,1.66,4a33.53,33.53,0,0,1-.44,3.6c1.52-.43,2.67-.94,4.4-1.59-.51,1.88-1.3,2.81-2.6,3a4.67,4.67,0,0,0-3.6,2.81c-1.58,3.16-4.1,3.67-8.21,1.65a5,5,0,0,1,.22.94c.22.79.36,1.58-.65,1.87a1.87,1.87,0,0,1-2.23-1.8c-.14-13.75,4.32-26.79,7.56-39.39.43-1.58.94-1.73,2.38-1.08,1,.51,1.29.79.86,1.95C269,21,267,29.3,265.27,37.65c-.15.44-.15.94-.36,1.66C266.06,38.37,266.85,37.72,267.71,36.93Zm1.52,7.49c.43-.07,1.15-.21,1.29-.5a11.43,11.43,0,0,0,.22-6.27,24.92,24.92,0,0,0-5.69,7Zm.36,1.44a3.13,3.13,0,0,0-3.53,1.37c-.51.65-.36,1.58-.44,2.45C268.43,48.67,269.44,47.59,269.59,45.86Z"/><path class="cls-1" d="M289.24,43.13c1.3,1.44-.36,3.31-2.23,5-3.89,3.39-11.45,5.4-10.3-3.09.58-4.18,3.1-6.12,5.83-6.27,8.21-.36,2.45,8.57-3,5.76C277.72,53.93,288.52,45.72,289.24,43.13Zm-4.9-2.6a4.66,4.66,0,0,0-4.46,2.38C281.9,43.41,285.42,41.47,284.34,40.53Z"/><path class="cls-1" d="M295.58,37.22c2.23-1.3,5,.07,4.82,2.52a6.7,6.7,0,0,1-1.37,2C293.7,34.7,290.25,46,290,50.54c0,.15,0,.22-.07.29-1.95.43-2.45,0-2.23-1.8.71-3.74,1.44-7.34,2-11.09.15-.65-.07-1.66,1.37-1.66,1.08,0,1.73.44,1.44,1.44-.14.58-.22,1.08-.29,1.52A21.53,21.53,0,0,1,295.58,37.22Z"/><path class="cls-1" d="M289,24h8.28c3.75,0,7.85.79,8.43-1.51.79-3.6,1.65-7.27,2.59-10.87.36-.8.29-2.09,2.09-1.16,1.51.72,1.94,1.52,1.51,3-.86,3.67-2,7.27-2.59,10.87l33,.79a1.78,1.78,0,0,1,.21.87c-2.37,0-4.75-.07-7,0-4.25,0-8.5,0-12.75.07-4,.07-8.06.14-12.1.14-2.59,0-2.8.29-3.16,2.38-.87,5.4-3.46,11.31-2.52,16.85,1.51,7.56,7.63,4.46,10.08-2.23a7.42,7.42,0,0,1-.29,6.33,6,6,0,0,1-6.05,2.6c-2.52-.22-5.26-2.81-6.26-5.69a15.84,15.84,0,0,1-.51-7.71c.72-4.1,1.51-8.13,2.38-12.53h-3c-3.16-.07-6.33-.28-9.65-.57A3.07,3.07,0,0,1,289,24Z"/><path class="cls-1" d="M317.39,46.8a38.76,38.76,0,0,0-.5,7.7c-.07,1,.07,2.09-1.59,1.66a2.77,2.77,0,0,1-1.8-2.67,39.64,39.64,0,0,1,.43-5.9C315.3,39,316.82,30.45,318.4,22c.58-3.24,1.37-6.34,2-9.44.22-1.08.44-2.16,2.09-1.58a3,3,0,0,1,1.3,3.17c-.72,2.52-1.37,5.11-2,7.7-.72,3-1.29,6.19-1.94,9.29-.58,2.95-1.15,5.83-1.8,8.93,0,.22.14.5.21,1a18.47,18.47,0,0,0,2.6-1.87,2.46,2.46,0,0,1,3-.22,3.06,3.06,0,0,1,1.73,2.88c0,1.66.29,3.31.43,5,2.45-.29,3-2.23,4.25-3.74.14.36.36.5.43.72.65,1.22-.14,3.67-1.15,4.39-1.44.86-3.1.72-4.9-.43-1.87-1.3-1.58-3-1.8-4.47a19.58,19.58,0,0,1-.36-3.24C319.55,41.61,318.33,44.13,317.39,46.8Z"/><path class="cls-2" d="M42.71,106.67l.4-16.2h1.5l3.22,14.06,3.26-14.06h1.52l.4,16.2H51.75l-.32-12.9-3.1,12.9h-1L44.29,93.79,44,106.67Z"/><path class="cls-2" d="M62.69,106.87a4.63,4.63,0,0,1-2.55-.59,3,3,0,0,1-1.25-1.64,7.92,7.92,0,0,1-.34-2.39V90.47H60v11.82a6.46,6.46,0,0,0,.21,1.71,2.19,2.19,0,0,0,.79,1.21,2.67,2.67,0,0,0,1.66.44,2.56,2.56,0,0,0,1.62-.45,2.29,2.29,0,0,0,.81-1.21,5.6,5.6,0,0,0,.23-1.7V90.47h1.46v11.78a7.32,7.32,0,0,1-.36,2.39,3.09,3.09,0,0,1-1.26,1.64A4.47,4.47,0,0,1,62.69,106.87Z"/><path class="cls-2" d="M72.51,106.67V90.47H74v15.06h4.6v1.14Z"/><path class="cls-2" d="M84,106.67v-15H80.91V90.47h7.54v1.18h-3v15Z"/><path class="cls-2" d="M93.33,106.67V90.47h1.52v16.2Z"/><path class="cls-2" d="M100.63,106.67l.4-16.2h1.5l3.22,14.06L109,90.47h1.52l.4,16.2h-1.26l-.32-12.9-3.1,12.9h-1l-3.06-12.88-.32,12.88Z"/><path class="cls-2" d="M116.63,106.67V90.47h5.86v1.18h-4.32v6.08h3.52v1.12h-3.52v6.68h4.36v1.14Z"/><path class="cls-2" d="M127.65,106.67V90.47h3.52a5.05,5.05,0,0,1,2.65.59,3.22,3.22,0,0,1,1.34,1.67,7.37,7.37,0,0,1,.39,2.5v6.44a8,8,0,0,1-.39,2.63,3.34,3.34,0,0,1-1.31,1.75,4.44,4.44,0,0,1-2.54.62Zm1.52-1.14h2a2.76,2.76,0,0,0,1.88-.53,2.43,2.43,0,0,0,.76-1.46,12.16,12.16,0,0,0,.16-2.11v-6a8.56,8.56,0,0,0-.21-2,2.11,2.11,0,0,0-.82-1.26,3.25,3.25,0,0,0-1.83-.43h-2Z"/><path class="cls-2" d="M141.15,106.67V90.47h1.52v16.2Z"/><path class="cls-2" d="M148.57,106.67V90.47h5.86v1.18h-4.32v6.08h3.52v1.12h-3.52v6.68h4.36v1.14Z"/><path class="cls-2" d="M159.59,106.67V90.47h3.52a5.05,5.05,0,0,1,2.65.59,3.22,3.22,0,0,1,1.34,1.67,7.37,7.37,0,0,1,.39,2.5v6.44a8,8,0,0,1-.39,2.63,3.34,3.34,0,0,1-1.31,1.75,4.44,4.44,0,0,1-2.54.62Zm1.52-1.14h2A2.76,2.76,0,0,0,165,105a2.43,2.43,0,0,0,.76-1.46,12.16,12.16,0,0,0,.16-2.11v-6a8.56,8.56,0,0,0-.21-2,2.11,2.11,0,0,0-.82-1.26,3.25,3.25,0,0,0-1.83-.43h-2Z"/><path class="cls-2" d="M173,106.67V90.47h5.86v1.18h-4.32v6.08h3.52v1.12h-3.52v6.68h4.36v1.14Z"/><path class="cls-2" d="M187.49,106.87a4,4,0,0,1-2.19-.55,3.36,3.36,0,0,1-1.31-1.54,7.13,7.13,0,0,1-.54-2.31l1.34-.4a9.2,9.2,0,0,0,.36,1.81,2.68,2.68,0,0,0,.82,1.28,2.29,2.29,0,0,0,1.54.47,2,2,0,0,0,2.28-2.34,3.29,3.29,0,0,0-.53-1.85,10.3,10.3,0,0,0-1.45-1.65L185,97.05a5,5,0,0,1-1.12-1.53,4.09,4.09,0,0,1-.36-1.73,3.28,3.28,0,0,1,1-2.58,3.83,3.83,0,0,1,2.66-.9,5.32,5.32,0,0,1,1.55.22,3,3,0,0,1,1.18.71,3.4,3.4,0,0,1,.77,1.27,7.77,7.77,0,0,1,.38,1.9l-1.3.34a6.9,6.9,0,0,0-.33-1.75,2.29,2.29,0,0,0-.78-1.11,2.5,2.5,0,0,0-1.47-.38,2.55,2.55,0,0,0-1.64.52,2,2,0,0,0-.64,1.62,2.77,2.77,0,0,0,.25,1.2A4,4,0,0,0,186,96l2.86,2.7a10.57,10.57,0,0,1,1.66,2,4.51,4.51,0,0,1,.7,2.48,4.05,4.05,0,0,1-.47,2,2.94,2.94,0,0,1-1.31,1.23A4.29,4.29,0,0,1,187.49,106.87Z"/><path class="cls-2" d="M196.33,106.67V90.47h1.52v16.2Z"/><path class="cls-2" d="M207.41,106.89a3.94,3.94,0,0,1-2.39-.64,3.39,3.39,0,0,1-1.23-1.81,9.22,9.22,0,0,1-.36-2.71V95.41a9.36,9.36,0,0,1,.35-2.7A3.27,3.27,0,0,1,205,90.94a5.26,5.26,0,0,1,4.82-.09,3,3,0,0,1,1.23,1.58,7.55,7.55,0,0,1,.38,2.54v.56H210V95a7.39,7.39,0,0,0-.21-1.92,2,2,0,0,0-.73-1.14,2.63,2.63,0,0,0-1.54-.38,2.49,2.49,0,0,0-1.66.48,2.27,2.27,0,0,0-.73,1.32,10,10,0,0,0-.17,1.92v6.66a8.41,8.41,0,0,0,.21,2,2.23,2.23,0,0,0,.78,1.28,2.55,2.55,0,0,0,1.61.44,2.13,2.13,0,0,0,2.32-1.74,8,8,0,0,0,.22-2V100h-2.4V98.83h3.8v7.84h-1l-.18-1.84a3.05,3.05,0,0,1-1,1.5A3,3,0,0,1,207.41,106.89Z"/><path class="cls-2" d="M217.19,106.67V90.47h1.1l5.16,12.58V90.47h1.32v16.2h-1.08L218.49,94v12.72Z"/><path class="cls-2" d="M230.61,106.67V90.47h5.86v1.18h-4.32v6.08h3.52v1.12h-3.52v6.68h4.36v1.14Z"/><path class="cls-2" d="M241.63,106.67V90.47h3.66a5,5,0,0,1,2.39.49,2.8,2.8,0,0,1,1.25,1.42,5.91,5.91,0,0,1,.38,2.21,7.14,7.14,0,0,1-.2,1.7,3.18,3.18,0,0,1-.68,1.36,2.3,2.3,0,0,1-1.36.74l2.48,8.28h-1.48l-2.38-8h-2.54v8Zm1.52-9.08h2.06a3,3,0,0,0,1.58-.34,1.87,1.87,0,0,0,.8-1,4.9,4.9,0,0,0,.24-1.66,3.9,3.9,0,0,0-.52-2.24,2.39,2.39,0,0,0-2.06-.74h-2.1Z"/><path class="cls-2" d="M262,106.67V90.47h5.86v1.18h-4.32v6.08h3.52v1.12h-3.52v6.68h4.36v1.14Z"/><path class="cls-2" d="M273,106.67V90.47h1.52v15.06h4.6v1.14Z"/><path class="cls-2" d="M283.69,106.67V90.47h5.86v1.18h-4.32v6.08h3.52v1.12h-3.52v6.68h4.36v1.14Z"/><path class="cls-2" d="M297.57,106.67l-3.8-16.2h1.46l3.06,13.42,2.88-13.42h1.44L299,106.67Z"/><line class="cls-3" x1="7.29" y1="82.32" x2="342.52" y2="82.32"/></svg>