<svg id="Layer_1" data-name="Layer 1" xmlns="http://www.w3.org/2000/svg" width="345.9" height="129.6" viewBox="0 0 345.9 129.6"><defs><style>.cls-1{fill:none;}.cls-2{isolation:isolate;}.cls-3{fill:#014941;}.cls-4{fill:#bdb891;}.cls-5{fill:#575756;stroke:#bdb891;stroke-miterlimit:10;}</style></defs><rect class="cls-1" x="109.7" y="-98" width="116.9" height="338.3" transform="translate(93.14 237.61) rotate(-88.68)"/><g class="cls-2"><path class="cls-3" d="M9,40.25a13.49,13.49,0,0,1-1.58-.51,12.24,12.24,0,0,1-1.3-.93,9.56,9.56,0,0,0,1.8-.65c.65-.29,1.44-.72,1.59-1.44a29.27,29.27,0,0,1,3.67-9.94,119.31,119.31,0,0,1,6.48-11.16c1.94-2.81,4-5.33,6.19-8a3.43,3.43,0,0,1,3.89-1.08,2.93,2.93,0,0,1,2.45,3c.21,4.68-2.09,8.07-4.25,11.45-3.24,4.68-6.7,9.22-10.15,13.68a11.71,11.71,0,0,1-2.6,2.38c-2.08,1-2.88,3-3.16,5.18-.36,2.88-.58,7.85-.8,10.8.08.79.44,1.8.65,2.81,1.15-.36,2.38-.72,3.53-1.15,5.11-1.8,10.73-1.87,16.42-1.73a66.83,66.83,0,0,1,7.56.79c2.16.36,3.24,1.23,3.6,2.52a52.54,52.54,0,0,0-23,.43c-2.52.58-4.61,1.88-6.91,2.81A16.14,16.14,0,0,1,10,60.77,2.67,2.67,0,0,1,8,60.12,2.5,2.5,0,0,1,8.23,58c.43-.58,1.44-.87,2.16-1.3C6.94,51.41,8,44.78,9,40.25ZM18,30C20.9,26,23.78,22,26.59,18a15.56,15.56,0,0,0,2.95-8.65,10.2,10.2,0,0,1-.35-1.29C22.63,15.26,18.6,24,15.07,33,16,32,17.09,31.1,18,30Z"/><path class="cls-3" d="M45.17,43.13c1.29,1.44-.36,3.31-2.23,5-3.46,3-9.73,4.9-10.37-.5a18.93,18.93,0,0,1-2.88,2.52,3.64,3.64,0,0,1-4.11-.72,4.28,4.28,0,0,1-.72-4.46,25.93,25.93,0,0,1,3.24-5.62,4.6,4.6,0,0,1,6.34-.79,3.59,3.59,0,0,1,1.15,1.15,6,6,0,0,1,2.88-.94c8.21-.36,2.45,8.57-2.95,5.76C33.65,53.93,44.45,45.72,45.17,43.13ZM33,39.81c-2.95.65-5.47,4.76-5,8C30.26,46.94,33.14,42.26,33,39.81Zm7.27.72a4.65,4.65,0,0,0-4.46,2.38C37.82,43.41,41.35,41.47,40.27,40.53Z"/><path class="cls-3" d="M51.5,37.22c2.23-1.3,5,.07,4.83,2.52a6.7,6.7,0,0,1-1.37,2c-5.33-7.06-8.79,4.25-9.07,8.78,0,.15,0,.22-.08.29-1.94.43-2.44,0-2.23-1.8.72-3.74,1.44-7.34,2-11.09.14-.65-.07-1.65,1.37-1.65,1.08,0,1.72.43,1.44,1.44a15,15,0,0,0-.29,1.51A22.71,22.71,0,0,1,51.5,37.22Z"/><path class="cls-3" d="M68.21,37.73c2.23.93,3.24,4-.72,5.9-3.24,1.44-5.12.86-4.11,4.18,1.37,3.67,5.76,1.36,6.48-.15a3.27,3.27,0,0,1-2.59,4.11c-2.38.64-5.4-.87-7.49-5.19-.43,3.1-.93,6.34-1.37,9.51-.14,0-.21.07-.36.07-.36-.72-1-1.44-1-2.16a46.55,46.55,0,0,1,.43-9c1.08-6.34,2.66-12.53,4-18.8.72-3.38,1.58-6.76,2.45-10.15.21-.79.65-1.44,1.87-.72a1.61,1.61,0,0,1,.94,2.09c-1.8,6.91-3.53,14.69-4.83,21.46C63.6,37.94,66.12,36.86,68.21,37.73ZM61.44,43.2c3-.43,6-2.16,6.55-3.89A6.74,6.74,0,0,0,61.44,43.2Z"/><path class="cls-3" d="M84.41,43.13c1.29,1.44-.36,3.31-2.24,5-3.88,3.39-11.45,5.4-10.29-3.09.57-4.18,3.09-6.12,5.83-6.27,8.21-.36,2.45,8.57-2.95,5.76C72.88,53.93,83.69,45.72,84.41,43.13Zm-4.9-2.6A4.66,4.66,0,0,0,75,42.91C77.06,43.41,80.59,41.47,79.51,40.53Z"/><path class="cls-3" d="M151.94,9.79c1.16,4.1.22,7.63-.28,11.3-1.16,9.29-3.24,32.76-14.33,34.06-3.39.36-6.48-1.58-9-5.47A31,31,0,0,1,124,38.88c-.15-.58-.29-1.3-.51-2.23-1.37,4-2.66,7.77-4.1,11.44-1,2.6-1.73,5.4-3.89,7.06a4.94,4.94,0,0,1-5.76.07,6.92,6.92,0,0,1-3.24-4.68,40,40,0,0,1-.29-13.39c.65-8.28,3.46-15.63,5.9-23a5.55,5.55,0,0,1,.8-1.73c.79-1.22,1.51-1.58,2.8-.07-1.15,4-2.66,7.7-3.74,11.66a124.87,124.87,0,0,0-2.66,14,89,89,0,0,0,.43,13.11,4.1,4.1,0,0,0,1.51,2.81c.43.28,1.73-.22,2.3-.72,2.52-2.24,3.75-5.33,5-8.5a69.63,69.63,0,0,1,3.1-7.92,12.61,12.61,0,0,0,1.22-5.55,1.74,1.74,0,0,1,1.3-1.22c.79-.14,1.37.65,1.51,1.51.65,3.24,1.23,6.48,2.16,9.72A46.48,46.48,0,0,0,131.64,50c2.09,3.52,4,4.1,7.2,2.08,3.38-2.3,4.75-6.12,5.9-10a115.05,115.05,0,0,0,3.17-12.17c.87-4.68,1.44-9.51,2.09-14.26a44.2,44.2,0,0,0-.07-6.19,8.42,8.42,0,0,1,.29-1.51c.21,0,.28-.08.5-.08A7.93,7.93,0,0,1,151.94,9.79Z"/><path class="cls-3" d="M153.16,49.68c0-.94.51-1.66,1.44-1.59a3.8,3.8,0,0,1,1.16.29c1,.58.57,2.88-.94,3A1.49,1.49,0,0,1,153.16,49.68Z"/><path class="cls-3" d="M194.06,21C192,25.12,190,29.16,189,33.84a2.25,2.25,0,0,0-.22.57c4.68.36,8.79-1.65,14.26.87-.65.36-.87.72-1.23.79-3.74.43-7.56.86-11.09,1.44-1.65.22-3.09.65-3.24,2.59-.43,3.6-1.29,7.06-1.8,10.66a5.79,5.79,0,0,0,.29,2.88c.08.36,1.3.86,1.66.79,2.52-1.15,5-2.45,7.56-3.67a30.49,30.49,0,0,1,9.22-2.45.52.52,0,0,1,.21.43c-.29.15-.43.43-.79.51a48.83,48.83,0,0,0-11.95,4.89,26,26,0,0,1-6.2,2.45,3.33,3.33,0,0,1-4.17-3.31c.36-3.39.86-6.84,1.37-10.15.36-1.59.57-3.1.93-4.47-1.22-.5-2.23-.72-3.17-1.22a1.92,1.92,0,0,1-1-1.15c-.08-.37.43-.72.86-.8a13.39,13.39,0,0,1,2.88-.28A1.64,1.64,0,0,0,185,34.05c1.72-5.61,3.67-11.16,5.61-16.56a4.24,4.24,0,0,1,.58-1.44c-2.74.79-5.11,1.44-7.63,2.16-.29.07-.65.07-.87.15-1,.5-1.87.07-2.52-.94s-.21-1.8.87-2.16c7.77-2.45,15.77-4.47,24.55-4.83,2.74-.07,5.54,0,8.35.15a3.22,3.22,0,0,1,2.74,2.59c-8-1-15,.36-22.32,1.95C195.64,17.64,194.92,19.29,194.06,21Z"/><path class="cls-3" d="M215.66,50.4a3.7,3.7,0,0,1-1.37-2.52c0-1.8,1-3.39,1.15-5,.51-3.24-1.44-1.51-2.52-.51A20.35,20.35,0,0,0,208.31,50a10.78,10.78,0,0,0-.43,1.44c-.21,1.15-1.08,1.36-2.09.93s-.93-1.44-.79-2.23c.58-2.66,1.23-5.4,1.73-8.14.14-.86.22-1.8.43-2.66.51-1.87.65-1.94,2.81-1.08-.14,1.3-.36,2.74-.5,3.82,1.8-2.09,5.11-4.54,7.63-2.16a4.3,4.3,0,0,1,.57,3.24c-1.58,7.77,1.44,6.33,5.62.07,2.09,2.59-3.53,7.7-4.9,7.77A3.09,3.09,0,0,1,215.66,50.4Z"/><path class="cls-3" d="M228.76,51.84c-1.37,1-3,.5-4.54-.43A4.55,4.55,0,0,1,222,47.73c.15-4.32,1.66-7.56,5.12-9.57,2.08-1,4.6-.08,6.91,1.22a2,2,0,0,1,.86,1.37,43.78,43.78,0,0,1,.15,6.84c-.87,8.06-3,19-6.48,24.27-1.3,2-3,4-6.05,3.88-2.81-.07-6.77-2.73-6.12-6.84.79-5.54,4.24-8.85,9.29-10.73a6.32,6.32,0,0,1,2.44-.64c1.88.07,2.45-.94,2.6-2.38.21-1.87.57-3.74,1-5.76C230.63,50.33,229.63,51.12,228.76,51.84Zm-.43,7a12.91,12.91,0,0,0-9.29,9,7.53,7.53,0,0,0-.43,3.39c.29,2.3,1.87,3.38,3.74,2.45A7.71,7.71,0,0,0,225,71.57c2.81-3.53,3.74-8.14,4.75-13ZM231,39.74c-.21-.21-.93,0-1.22.29a19.49,19.49,0,0,0-3.38,3.53,8.39,8.39,0,0,0-1.16,6.62C228.26,50.54,233.44,41.47,231,39.74Z"/><path class="cls-3" d="M249.64,43.13c1.3,1.44-.36,3.31-2.23,5-3.89,3.39-11.45,5.4-10.3-3.09.58-4.18,3.1-6.12,5.84-6.27,8.2-.36,2.44,8.57-3,5.76C238.12,53.93,248.92,45.72,249.64,43.13Zm-4.89-2.6a4.66,4.66,0,0,0-4.47,2.38C242.3,43.41,245.83,41.47,244.75,40.53Z"/><path class="cls-3" d="M259.87,56.16c-2.16,1.15-4.76,1.58-7.21-.22A9.51,9.51,0,0,1,248.85,48c0-8.93,3.6-23,5.25-31.39a14.11,14.11,0,0,1,.44-2.59,1.2,1.2,0,0,1,1.22-.51,2.65,2.65,0,0,1,2.09,3.6c-.87,3.67-1.66,7.27-2.52,10.8-.72,3.24-1.8,11-2.31,14.33-.36,2.31-2,14.4,3.17,12.6,1.95-.65,3.82-1.44,5.84-2.23C262.46,54.14,261.81,55.22,259.87,56.16Z"/><path class="cls-3" d="M267.71,36.93c1.3-1.22,2.88-1,4.54-.28,1.29.57,1.94,2.3,1.66,4a33.53,33.53,0,0,1-.44,3.6c1.52-.43,2.67-.94,4.4-1.59-.51,1.88-1.3,2.81-2.6,3a4.64,4.64,0,0,0-3.6,2.81c-1.58,3.16-4.1,3.67-8.21,1.65a5,5,0,0,1,.22.94c.22.79.36,1.58-.65,1.87a1.87,1.87,0,0,1-2.23-1.8c-.14-13.75,4.32-26.79,7.56-39.39.43-1.58.94-1.72,2.38-1.08,1,.51,1.29.79.86,1.95C269,21,267,29.3,265.26,37.65c-.14.43-.14.94-.36,1.66C266.06,38.37,266.85,37.73,267.71,36.93Zm1.51,7.49c.44-.07,1.16-.21,1.3-.5a11.43,11.43,0,0,0,.22-6.27,24.92,24.92,0,0,0-5.69,7Zm.36,1.44a3.12,3.12,0,0,0-3.52,1.37c-.51.65-.36,1.58-.44,2.45C268.43,48.67,269.44,47.59,269.58,45.86Z"/><path class="cls-3" d="M289.24,43.13c1.3,1.44-.36,3.31-2.23,5-3.89,3.39-11.45,5.4-10.3-3.09.58-4.18,3.1-6.12,5.83-6.27,8.21-.36,2.45,8.57-3,5.76C277.72,53.93,288.52,45.72,289.24,43.13Zm-4.9-2.6a4.65,4.65,0,0,0-4.46,2.38C281.9,43.41,285.42,41.47,284.34,40.53Z"/><path class="cls-3" d="M295.57,37.22c2.24-1.3,5,.07,4.83,2.52a6.7,6.7,0,0,1-1.37,2C293.7,34.7,290.25,46,290,50.54c0,.15,0,.22-.07.29-1.95.43-2.45,0-2.24-1.8.72-3.74,1.44-7.34,2-11.09.14-.65-.07-1.65,1.37-1.65,1.08,0,1.73.43,1.44,1.44a15,15,0,0,0-.29,1.51A22.71,22.71,0,0,1,295.57,37.22Z"/><path class="cls-3" d="M289,24h8.28c3.75,0,7.85.79,8.43-1.51.79-3.6,1.65-7.27,2.59-10.87.36-.8.29-2.09,2.09-1.16,1.51.73,1.94,1.52,1.51,3-.87,3.67-2,7.27-2.59,10.87l33,.79a1.78,1.78,0,0,1,.21.87c-2.38,0-4.75-.07-7.06,0-4.24,0-8.49,0-12.74.07-4,.07-8.06.14-12.1.14-2.59,0-2.81.29-3.17,2.38-.86,5.4-3.45,11.31-2.52,16.85,1.52,7.56,7.64,4.46,10.08-2.23a7.38,7.38,0,0,1-.28,6.33,6,6,0,0,1-6.05,2.6c-2.52-.22-5.26-2.81-6.27-5.69a16,16,0,0,1-.5-7.71c.72-4.1,1.51-8.13,2.38-12.53h-3c-3.17-.07-6.33-.28-9.65-.57A3.07,3.07,0,0,1,289,24Z"/><path class="cls-3" d="M317.39,46.8c-.58,2.37-.43,5.11-.51,7.7-.07,1,.08,2.09-1.58,1.66a2.77,2.77,0,0,1-1.8-2.67,38.34,38.34,0,0,1,.43-5.9C315.3,39,316.81,30.45,318.4,22c.57-3.24,1.37-6.34,2-9.44.22-1.08.44-2.16,2.09-1.58a3,3,0,0,1,1.3,3.17c-.72,2.52-1.37,5.11-2,7.7-.72,3-1.29,6.19-1.94,9.29-.58,2.95-1.15,5.83-1.8,8.93,0,.22.14.5.21,1a19.07,19.07,0,0,0,2.6-1.87,2.46,2.46,0,0,1,3-.22,3.06,3.06,0,0,1,1.73,2.88c0,1.66.29,3.31.43,5,2.45-.29,3-2.23,4.25-3.74.14.36.36.5.43.72.65,1.22-.14,3.67-1.15,4.39-1.44.86-3.1.72-4.9-.43-1.87-1.3-1.58-3-1.8-4.47a19.58,19.58,0,0,1-.36-3.24C319.55,41.61,318.33,44.13,317.39,46.8Z"/></g><path class="cls-4" d="M26.62,101.77V88h0l6.65,9.44-.4-.06L39.52,88h0v13.79h-.91V90.12l.07.46L33.08,98.5h0l-5.66-7.92.15-.42v11.61Z"/><path class="cls-4" d="M46.34,97.21a4.13,4.13,0,0,0,.48,2,3.58,3.58,0,0,0,1.33,1.32A3.81,3.81,0,0,0,50,101a3.91,3.91,0,0,0,1.93-.46,3.44,3.44,0,0,0,1.33-1.32,4,4,0,0,0,.49-2V88.28h.91v9a4.89,4.89,0,0,1-.62,2.51,4.12,4.12,0,0,1-1.67,1.59,5.36,5.36,0,0,1-4.73,0A4,4,0,0,1,46,99.78a4.89,4.89,0,0,1-.61-2.51v-9h.93Z"/><path class="cls-4" d="M60.57,88.28h.93v12.6h7.39v.89H60.57Z"/><path class="cls-4" d="M70.83,88.28h8.84v.89h-4v12.6h-.94V89.17H70.83Z"/><path class="cls-4" d="M84.53,88.28h.93v13.49h-.93Z"/><path class="cls-4" d="M91.41,101.77V88h0l6.65,9.44-.4-.06L104.31,88h0v13.79h-.91V90.12l.07.46L97.87,98.5h0l-5.66-7.92.15-.42v11.61Z"/><path class="cls-4" d="M110.27,88.28h8.33v.89h-7.39v5.36h6.65v.9h-6.65v5.45h7.65v.89h-8.59Z"/><path class="cls-4" d="M124.07,101.77V88.28h3.32a8.16,8.16,0,0,1,3.34.62A6.16,6.16,0,0,1,133,90.52a6.59,6.59,0,0,1,1.25,2.21,7.37,7.37,0,0,1,.4,2.37,6.81,6.81,0,0,1-.53,2.77,6.47,6.47,0,0,1-1.45,2.1,6.65,6.65,0,0,1-2.1,1.34,6.75,6.75,0,0,1-2.49.46Zm.93-.89h2.79a6.36,6.36,0,0,0,2.28-.4,5.46,5.46,0,0,0,1.87-1.16,5.51,5.51,0,0,0,1.27-1.83,6.28,6.28,0,0,0,.45-2.44,6.36,6.36,0,0,0-.39-2.22A5.59,5.59,0,0,0,132.11,91a5.69,5.69,0,0,0-1.92-1.29,6.83,6.83,0,0,0-2.66-.48H125Z"/><path class="cls-4" d="M139.71,88.28h.93v13.49h-.93Z"/><path class="cls-4" d="M146.58,88.28h8.33v.89h-7.4v5.36h6.65v.9h-6.65v5.45h7.66v.89h-8.59Z"/><path class="cls-4" d="M160.38,101.77V88.28h3.32a8.16,8.16,0,0,1,3.34.62,6.24,6.24,0,0,1,2.23,1.62,6.59,6.59,0,0,1,1.25,2.21,7.37,7.37,0,0,1,.4,2.37,7,7,0,0,1-.53,2.77,6.47,6.47,0,0,1-1.45,2.1,6.65,6.65,0,0,1-2.1,1.34,6.75,6.75,0,0,1-2.49.46Zm.93-.89h2.79a6.36,6.36,0,0,0,2.28-.4,5.45,5.45,0,0,0,3.14-3,6.28,6.28,0,0,0,.45-2.44,6.36,6.36,0,0,0-.39-2.22A5.46,5.46,0,0,0,168.41,91a5.75,5.75,0,0,0-1.91-1.29,6.88,6.88,0,0,0-2.67-.48h-2.52Z"/><path class="cls-4" d="M176,88.28h8.33v.89H177v5.36h6.65v.9H177v5.45h7.65v.89H176Z"/><path class="cls-4" d="M196.55,89.8a8.65,8.65,0,0,0-1.44-.53A6.32,6.32,0,0,0,193.4,89a3.18,3.18,0,0,0-2.13.67,2.09,2.09,0,0,0-.8,1.67,1.76,1.76,0,0,0,.46,1.26,3.7,3.7,0,0,0,1.2.86c.49.23,1,.46,1.57.67s.89.35,1.32.55a5.69,5.69,0,0,1,1.19.74,3.25,3.25,0,0,1,.85,1.09,3.61,3.61,0,0,1,.31,1.59,3.77,3.77,0,0,1-.53,2,3.62,3.62,0,0,1-1.48,1.34,4.86,4.86,0,0,1-2.21.47,6.54,6.54,0,0,1-1.83-.24,8.58,8.58,0,0,1-1.45-.58c-.41-.22-.73-.41-1-.56l.43-.76a7.65,7.65,0,0,0,1,.6,7.2,7.2,0,0,0,1.3.52,4.92,4.92,0,0,0,1.41.21,4,4,0,0,0,1.58-.33,3.08,3.08,0,0,0,1.28-1,2.72,2.72,0,0,0,.5-1.67,2.46,2.46,0,0,0-.47-1.56,3.69,3.69,0,0,0-1.22-1,13.43,13.43,0,0,0-1.58-.69c-.43-.16-.86-.34-1.29-.52a5.88,5.88,0,0,1-1.18-.66,3,3,0,0,1-.84-.94,2.67,2.67,0,0,1-.32-1.33,3,3,0,0,1,.5-1.7,3.39,3.39,0,0,1,1.34-1.13,4.53,4.53,0,0,1,1.93-.42,8.15,8.15,0,0,1,3.62.87Z"/><path class="cls-4" d="M202.5,88.28h.93v13.49h-.93Z"/><path class="cls-4" d="M219.56,100.82a4.8,4.8,0,0,1-.82.43,9.75,9.75,0,0,1-1,.35,10.29,10.29,0,0,1-1.13.24,7.09,7.09,0,0,1-1.09.08,7.5,7.5,0,0,1-2.88-.52,6.57,6.57,0,0,1-2.2-1.44A6.42,6.42,0,0,1,209,97.81a7.49,7.49,0,0,1,.06-5.48,6.77,6.77,0,0,1,3.69-3.69,7,7,0,0,1,2.66-.51,7.16,7.16,0,0,1,2,.27,6.35,6.35,0,0,1,1.7.72l-.34.83a5.93,5.93,0,0,0-1-.46,9.05,9.05,0,0,0-1.13-.32,6.48,6.48,0,0,0-1.15-.11,6.11,6.11,0,0,0-2.4.46,6,6,0,0,0-1.92,1.27,5.75,5.75,0,0,0-1.27,1.92,6.06,6.06,0,0,0-.46,2.39,6.35,6.35,0,0,0,.43,2.33,5.65,5.65,0,0,0,1.22,1.88,5.4,5.4,0,0,0,1.89,1.26,6.6,6.6,0,0,0,2.45.44,7.64,7.64,0,0,0,1.67-.19,5.09,5.09,0,0,0,1.5-.55V96.53h-3v-.9h4Z"/><path class="cls-4" d="M236.4,102.09l-10.64-12,.24-.19,0,11.85h-.91V88h.06l10.64,12.08-.25.08,0-11.88h.89v13.81Z"/><path class="cls-4" d="M242.38,88.28h8.32v.89h-7.39v5.36H250v.9h-6.65v5.45H251v.89h-8.59Z"/><path class="cls-4" d="M259.25,88.28a5.21,5.21,0,0,1,1.51.22,4.29,4.29,0,0,1,1.37.68,3.61,3.61,0,0,1,1,1.19,3.71,3.71,0,0,1,.38,1.73,4.81,4.81,0,0,1-.23,1.47,3.48,3.48,0,0,1-.74,1.29,3.7,3.7,0,0,1-1.33.91,5.18,5.18,0,0,1-2,.34h-2.09v5.66h-.94V88.28Zm-.11,6.94a4.24,4.24,0,0,0,1.67-.29,2.76,2.76,0,0,0,1.05-.74,2.87,2.87,0,0,0,.54-1,3.94,3.94,0,0,0,.16-1,2.86,2.86,0,0,0-.22-1.14,2.76,2.76,0,0,0-.64-.94,3.14,3.14,0,0,0-1-.65,3.47,3.47,0,0,0-1.31-.24h-2.28v6Zm1.94.41,3.74,6.14h-1.08L260,95.65Z"/><path class="cls-4" d="M277.34,88.28h8.32v.89h-7.39v5.36h6.65v.9h-6.65v5.45h7.66v.89h-8.59Z"/><path class="cls-4" d="M291.13,88.28h.94v12.6h7.39v.89h-8.33Z"/><path class="cls-4" d="M304.25,88.28h8.32v.89h-7.39v5.36h6.65v.9h-6.65v5.45h7.65v.89h-8.58Z"/><path class="cls-4" d="M317.91,88.28l5,12.64-.51-.08,4.86-12.56h1.07l-5.74,14.12-5.74-14.12Z"/><line class="cls-5" x1="7.3" y1="82.3" x2="342.5" y2="82.3"/></svg>
