<?xml version="1.0" encoding="utf-8"?>
<!-- Generator: Adobe Illustrator 24.3.0, SVG Export Plug-In . SVG Version: 6.00 Build 0)  -->
<svg version="1.1" id="Layer_1" xmlns="http://www.w3.org/2000/svg" xmlns:xlink="http://www.w3.org/1999/xlink" x="0px" y="0px"
	 viewBox="0 0 351.5 131.9" style="enable-background:new 0 0 351.5 131.9;" xml:space="preserve">
<style type="text/css">
	.st0{fill:none;}
	.st1{fill:#575756;}
	.st2{font-family:'Anjhay';}
	.st3{font-size:85px;}
</style>
<rect y="15" class="st0" width="351.5" height="116.9"/>
<text transform="matrix(1 0 0 1 28.26 72.249)" class="st1 st2 st3">Lærke Engelberth</text>
<g>
	<g>
		<path d="M45.6,112.1L46,95.9h1.5l3.2,14.1L54,95.9h1.5l0.4,16.2h-1.3l-0.3-12.9l-3.1,12.9h-1l-3.1-12.9l-0.3,12.9H45.6z"/>
		<path d="M65.6,112.3c-1.1,0-1.9-0.2-2.5-0.6c-0.6-0.4-1-0.9-1.2-1.6c-0.2-0.7-0.3-1.5-0.3-2.4V95.9h1.5v11.8
			c0,0.6,0.1,1.2,0.2,1.7c0.1,0.5,0.4,0.9,0.8,1.2c0.4,0.3,0.9,0.4,1.7,0.4c0.7,0,1.2-0.1,1.6-0.5c0.4-0.3,0.7-0.7,0.8-1.2
			c0.2-0.5,0.2-1.1,0.2-1.7V95.9h1.5v11.8c0,0.9-0.1,1.7-0.4,2.4c-0.2,0.7-0.7,1.2-1.3,1.6S66.6,112.3,65.6,112.3z"/>
		<path d="M75.4,112.1V95.9h1.5V111h4.6v1.1H75.4z"/>
		<path d="M88.1,112.1v-15H85v-1.2h7.5v1.2h-3v15H88.1z"/>
		<path d="M97.4,112.1V95.9h1.5v16.2H97.4z"/>
		<path d="M104.7,112.1l0.4-16.2h1.5l3.2,14.1l3.3-14.1h1.5l0.4,16.2h-1.3l-0.3-12.9l-3.1,12.9h-1l-3.1-12.9l-0.3,12.9H104.7z"/>
		<path d="M120.7,112.1V95.9h5.9v1.2h-4.3v6.1h3.5v1.1h-3.5v6.7h4.4v1.1H120.7z"/>
		<path d="M131.7,112.1V95.9h3.5c1.1,0,2,0.2,2.6,0.6s1.1,0.9,1.3,1.7c0.3,0.7,0.4,1.6,0.4,2.5v6.4c0,1-0.1,1.9-0.4,2.6
			c-0.3,0.8-0.7,1.3-1.3,1.8c-0.6,0.4-1.5,0.6-2.5,0.6H131.7z M133.3,111h2c0.9,0,1.5-0.2,1.9-0.5c0.4-0.4,0.7-0.8,0.8-1.5
			c0.1-0.6,0.2-1.3,0.2-2.1v-6c0-0.8-0.1-1.5-0.2-2.1c-0.1-0.6-0.4-1-0.8-1.3c-0.4-0.3-1-0.4-1.8-0.4h-2V111z"/>
		<path d="M145.2,112.1V95.9h1.5v16.2H145.2z"/>
		<path d="M152.7,112.1V95.9h5.9v1.2h-4.3v6.1h3.5v1.1h-3.5v6.7h4.4v1.1H152.7z"/>
		<path d="M163.7,112.1V95.9h3.5c1.1,0,2,0.2,2.6,0.6s1.1,0.9,1.3,1.7c0.3,0.7,0.4,1.6,0.4,2.5v6.4c0,1-0.1,1.9-0.4,2.6
			c-0.3,0.8-0.7,1.3-1.3,1.8c-0.6,0.4-1.5,0.6-2.5,0.6H163.7z M165.2,111h2c0.9,0,1.5-0.2,1.9-0.5c0.4-0.4,0.7-0.8,0.8-1.5
			c0.1-0.6,0.2-1.3,0.2-2.1v-6c0-0.8-0.1-1.5-0.2-2.1c-0.1-0.6-0.4-1-0.8-1.3c-0.4-0.3-1-0.4-1.8-0.4h-2V111z"/>
		<path d="M177.1,112.1V95.9h5.9v1.2h-4.3v6.1h3.5v1.1h-3.5v6.7h4.4v1.1H177.1z"/>
		<path d="M191.6,112.3c-0.9,0-1.6-0.2-2.2-0.6s-1-0.9-1.3-1.5c-0.3-0.7-0.5-1.4-0.5-2.3l1.3-0.4c0.1,0.7,0.2,1.3,0.4,1.8
			c0.2,0.5,0.4,1,0.8,1.3c0.4,0.3,0.9,0.5,1.5,0.5c0.7,0,1.3-0.2,1.7-0.6c0.4-0.4,0.6-1,0.6-1.8c0-0.7-0.2-1.3-0.5-1.9
			c-0.4-0.5-0.8-1.1-1.5-1.6l-2.9-2.7c-0.5-0.5-0.9-1-1.1-1.5s-0.4-1.1-0.4-1.7c0-1.1,0.3-2,1-2.6s1.6-0.9,2.7-0.9
			c0.6,0,1.1,0.1,1.5,0.2c0.5,0.1,0.9,0.4,1.2,0.7c0.3,0.3,0.6,0.8,0.8,1.3s0.3,1.2,0.4,1.9l-1.3,0.3c-0.1-0.7-0.2-1.3-0.3-1.8
			s-0.4-0.9-0.8-1.1s-0.8-0.4-1.5-0.4c-0.7,0-1.2,0.2-1.6,0.5c-0.4,0.3-0.6,0.9-0.6,1.6c0,0.4,0.1,0.8,0.2,1.2
			c0.2,0.4,0.5,0.7,0.9,1.2l2.9,2.7c0.6,0.6,1.2,1.3,1.7,2s0.7,1.6,0.7,2.5c0,0.8-0.2,1.5-0.5,2c-0.3,0.5-0.8,1-1.3,1.2
			C193,112.2,192.3,112.3,191.6,112.3z"/>
		<path d="M200.4,112.1V95.9h1.5v16.2H200.4z"/>
		<path d="M211.5,112.3c-1,0-1.8-0.2-2.4-0.6c-0.6-0.4-1-1-1.2-1.8c-0.2-0.8-0.4-1.7-0.4-2.7v-6.3c0-1,0.1-1.9,0.3-2.7
			c0.2-0.8,0.6-1.4,1.2-1.8c0.6-0.4,1.4-0.6,2.5-0.6c1,0,1.7,0.2,2.3,0.5c0.6,0.4,1,0.9,1.2,1.6c0.3,0.7,0.4,1.5,0.4,2.5v0.6h-1.4
			v-0.6c0-0.8-0.1-1.4-0.2-1.9c-0.1-0.5-0.4-0.9-0.7-1.1s-0.9-0.4-1.5-0.4c-0.7,0-1.3,0.2-1.7,0.5c-0.4,0.3-0.6,0.8-0.7,1.3
			s-0.2,1.2-0.2,1.9v6.7c0,0.8,0.1,1.5,0.2,2c0.1,0.6,0.4,1,0.8,1.3c0.4,0.3,0.9,0.4,1.6,0.4c0.7,0,1.2-0.1,1.5-0.5
			c0.4-0.3,0.6-0.7,0.8-1.3c0.1-0.6,0.2-1.2,0.2-2v-1.9h-2.4v-1.1h3.8v7.8h-1l-0.2-1.8c-0.2,0.6-0.5,1.1-1,1.5
			S212.3,112.3,211.5,112.3z"/>
		<path d="M221.3,112.1V95.9h1.1l5.2,12.6V95.9h1.3v16.2h-1.1l-5.2-12.7v12.7H221.3z"/>
		<path d="M234.7,112.1V95.9h5.9v1.2h-4.3v6.1h3.5v1.1h-3.5v6.7h4.4v1.1H234.7z"/>
		<path d="M245.7,112.1V95.9h3.7c1,0,1.8,0.2,2.4,0.5s1,0.8,1.2,1.4s0.4,1.4,0.4,2.2c0,0.6-0.1,1.2-0.2,1.7c-0.1,0.5-0.4,1-0.7,1.4
			c-0.3,0.4-0.8,0.6-1.4,0.7l2.5,8.3h-1.5l-2.4-8h-2.5v8H245.7z M247.2,103h2.1c0.7,0,1.2-0.1,1.6-0.3s0.6-0.6,0.8-1s0.2-1,0.2-1.7
			c0-1-0.2-1.7-0.5-2.2s-1-0.7-2.1-0.7h-2.1V103z"/>
		<path d="M266.1,112.1V95.9h5.9v1.2h-4.3v6.1h3.5v1.1h-3.5v6.7h4.4v1.1H266.1z"/>
		<path d="M277.1,112.1V95.9h1.5V111h4.6v1.1H277.1z"/>
		<path d="M287.8,112.1V95.9h5.9v1.2h-4.3v6.1h3.5v1.1h-3.5v6.7h4.4v1.1H287.8z"/>
		<path d="M301.7,112.1l-3.8-16.2h1.5l3.1,13.4l2.9-13.4h1.4l-3.7,16.2H301.7z"/>
	</g>
</g>
</svg>
